<svg width="97" height="32" viewBox="0 0 97 32" fill="none" xmlns="http://www.w3.org/2000/svg">
<path d="M54.3449 17.752C54.3449 18.392 54.3022 18.968 54.2169 19.48H41.2569C41.3635 20.76 41.8115 21.7627 42.6009 22.488C43.3902 23.2133 44.3609 23.576 45.5129 23.576C47.1769 23.576 48.3609 22.8613 49.0649 21.432H53.8969C53.3849 23.1387 52.4035 24.5467 50.9529 25.656C49.5022 26.744 47.7209 27.288 45.6089 27.288C43.9022 27.288 42.3662 26.9147 41.0009 26.168C39.6569 25.4 38.6009 24.3227 37.8329 22.936C37.0862 21.5493 36.7129 19.9493 36.7129 18.136C36.7129 16.3013 37.0862 14.6907 37.8329 13.304C38.5795 11.9173 39.6249 10.8507 40.9689 10.104C42.3129 9.35733 43.8595 8.984 45.6089 8.984C47.2942 8.984 48.7982 9.34667 50.1209 10.072C51.4649 10.7973 52.4995 11.832 53.2249 13.176C53.9715 14.4987 54.3449 16.024 54.3449 17.752ZM49.7049 16.472C49.6835 15.32 49.2675 14.4027 48.4569 13.72C47.6462 13.016 46.6542 12.664 45.4809 12.664C44.3715 12.664 43.4329 13.0053 42.6649 13.688C41.9182 14.3493 41.4595 15.2773 41.2889 16.472H49.7049ZM56.4629 18.136C56.4629 16.3013 56.8362 14.7013 57.5829 13.336C58.3295 11.9493 59.3642 10.8827 60.6869 10.136C62.0095 9.368 63.5242 8.984 65.2309 8.984C67.4282 8.984 69.2415 9.53867 70.6709 10.648C72.1215 11.736 73.0922 13.272 73.5829 15.256H68.7509C68.4949 14.488 68.0575 13.8907 67.4389 13.464C66.8415 13.016 66.0949 12.792 65.1989 12.792C63.9189 12.792 62.9055 13.2613 62.1589 14.2C61.4122 15.1173 61.0389 16.4293 61.0389 18.136C61.0389 19.8213 61.4122 21.1333 62.1589 22.072C62.9055 22.9893 63.9189 23.448 65.1989 23.448C67.0122 23.448 68.1962 22.6373 68.7509 21.016H73.5829C73.0922 22.936 72.1215 24.4613 70.6709 25.592C69.2202 26.7227 67.4069 27.288 65.2309 27.288C63.5242 27.288 62.0095 26.9147 60.6869 26.168C59.3642 25.4 58.3295 24.3333 57.5829 22.968C56.8362 21.5813 56.4629 19.9707 56.4629 18.136ZM84.7369 27.288C83.0302 27.288 81.4942 26.9147 80.1289 26.168C78.7635 25.4 77.6862 24.3227 76.8969 22.936C76.1289 21.5493 75.7449 19.9493 75.7449 18.136C75.7449 16.3227 76.1395 14.7227 76.9289 13.336C77.7395 11.9493 78.8382 10.8827 80.2249 10.136C81.6115 9.368 83.1582 8.984 84.8649 8.984C86.5715 8.984 88.1182 9.368 89.5049 10.136C90.8915 10.8827 91.9795 11.9493 92.7689 13.336C93.5795 14.7227 93.9849 16.3227 93.9849 18.136C93.9849 19.9493 93.5689 21.5493 92.7369 22.936C91.9262 24.3227 90.8169 25.4 89.4089 26.168C88.0222 26.9147 86.4649 27.288 84.7369 27.288ZM84.7369 23.384C85.5475 23.384 86.3049 23.192 87.0089 22.808C87.7342 22.4027 88.3102 21.8053 88.7369 21.016C89.1635 20.2267 89.3769 19.2667 89.3769 18.136C89.3769 16.4507 88.9289 15.16 88.0329 14.264C87.1582 13.3467 86.0809 12.888 84.8009 12.888C83.5209 12.888 82.4435 13.3467 81.5689 14.264C80.7155 15.16 80.2889 16.4507 80.2889 18.136C80.2889 19.8213 80.7049 21.1227 81.5369 22.04C82.3902 22.936 83.4569 23.384 84.7369 23.384Z" fill="#5DE091"/>
<path d="M0 31.2605V27.7989C0 27.7989 8.65417 24.3372 17.3083 24.3372C25.9625 24.3372 34.6167 27.7989 34.6167 27.7989V31.2605H0ZM16.0968 8.93277C14.0198 2.18252 3.46167 3.74027 3.46167 3.74027C3.46167 3.74027 3.80783 17.2408 13.6736 15.1638C12.9812 10.1444 10.385 8.75969 10.385 8.75969C15.2313 8.75969 15.5775 14.6445 15.5775 14.6445V22.6064H19.0392V15.3369C19.0392 15.3369 19.0392 8.58661 24.2317 6.85577C24.2317 6.85577 20.77 12.0483 20.77 15.5099C32.8858 16.7215 32.8858 0.105522 32.8858 0.105522C32.8858 0.105522 17.4814 -1.62531 16.0968 8.93277Z" fill="#5DE091"/>
</svg>
