<svg width="616" height="616" viewBox="0 0 616 616" fill="none" xmlns="http://www.w3.org/2000/svg">
<path d="M532.581 151.598C528.959 149.528 525.362 147.417 521.789 145.265C483.326 121.968 303.602 16.632 231.986 32.3893C151.536 50.0808 -2.32852 328.772 47.05 404.774C96.4286 480.776 325.482 602.83 382.154 576.859C438.826 550.889 578.042 298.575 583.795 238.614C588.723 187.412 545.369 158.854 532.581 151.598Z" fill="#5DE091"/>
<path opacity="0.7" d="M532.581 151.598C528.959 149.528 525.362 147.417 521.789 145.265C483.326 121.968 303.602 16.632 231.986 32.3893C151.536 50.0808 -2.32852 328.772 47.05 404.774C96.4286 480.776 325.482 602.83 382.154 576.859C438.826 550.889 578.042 298.575 583.795 238.614C588.723 187.412 545.369 158.854 532.581 151.598Z" fill="white"/>
<path d="M463.7 520.076C463.7 520.076 462.148 511.736 456.591 506.179C451.035 500.623 444.272 500.02 439.282 498.455C435.722 497.134 432.394 495.254 429.426 492.886C429.426 492.886 435.29 506.438 438.999 511.12C442.707 515.801 447.623 518.844 450.739 519.46C453.856 520.076 463.7 520.076 463.7 520.076Z" fill="#5DE091" stroke="#263238" stroke-miterlimit="10"/>
<path d="M472.965 469.392C472.965 469.392 472.965 461.667 476.057 457.959C479.149 454.251 495.523 448.99 495.523 448.99C495.523 448.99 490.89 458.575 484.435 463.774C477.979 468.973 472.965 469.392 472.965 469.392Z" fill="#5DE091" stroke="#263238" stroke-miterlimit="10"/>
<path d="M468.64 475.897C468.64 475.897 464.944 475.589 463.712 465.696C462.48 455.803 468.345 437.569 468.345 437.569C468.345 437.569 474.505 452.353 473.593 461.68C472.681 471.006 471.733 470.624 468.64 475.897Z" fill="#5DE091" stroke="#263238" stroke-miterlimit="10"/>
<path d="M473.581 502.471C473.581 502.471 474.197 489.486 482.55 484.854C489.08 481.393 495.791 478.288 502.656 475.552C502.656 475.552 499.256 486.985 494.623 491.925C489.991 496.866 485.346 502.742 481.071 504.245C479.783 504.691 478.395 504.761 477.068 504.446C475.742 504.132 474.532 503.447 473.581 502.471Z" fill="#5DE091" stroke="#263238" stroke-miterlimit="10"/>
<path d="M461.532 480.837C458.794 474.378 454.43 468.738 448.867 464.464C439.59 457.355 434.342 457.072 434.342 457.072C434.342 457.072 436.498 470.045 443.914 476.538C451.331 483.03 461.532 480.837 461.532 480.837Z" fill="#5DE091" stroke="#263238" stroke-miterlimit="10"/>
<path d="M468.948 542.018V466.62" stroke="#263238" stroke-miterlimit="10"/>
<path d="M469.256 524.721L453.191 510.196" stroke="#263238" stroke-miterlimit="10"/>
<path d="M469.564 507.104L486.874 491.346" stroke="#263238" stroke-miterlimit="10"/>
<path d="M468.948 486.702L448.867 472.189" stroke="#263238" stroke-miterlimit="10"/>
<path d="M469.564 472.805L479.765 462.912" stroke="#263238" stroke-miterlimit="10"/>
<path d="M442.522 549.139C442.522 549.139 464.476 538.778 469.059 538.47C473.642 538.162 495.892 549.472 495.892 549.472L442.522 549.139Z" fill="#263238" stroke="#263238" stroke-miterlimit="10"/>
<path d="M141.347 520.076C141.347 520.076 139.807 511.736 134.239 506.179C128.67 500.623 121.919 500.02 116.991 498.455C113.43 497.134 110.103 495.254 107.135 492.886C107.135 492.886 113.011 506.438 116.72 511.12C120.428 515.801 125.344 518.844 128.461 519.46C131.578 520.076 141.347 520.076 141.347 520.076Z" fill="#5DE091" stroke="#263238" stroke-miterlimit="10"/>
<path d="M150.624 469.392C150.624 469.392 150.624 461.667 153.704 457.959C156.784 454.251 173.182 448.99 173.182 448.99C173.182 448.99 168.538 458.575 162.094 463.774C155.651 468.973 150.624 469.392 150.624 469.392Z" fill="#5DE091" stroke="#263238" stroke-miterlimit="10"/>
<path d="M146.288 475.897C146.288 475.897 142.592 475.589 141.36 465.696C140.128 455.803 145.992 437.569 145.992 437.569C145.992 437.569 152.152 452.353 151.253 461.68C150.353 471.006 149.38 470.624 146.288 475.897Z" fill="#5DE091" stroke="#263238" stroke-miterlimit="10"/>
<path d="M151.24 502.471C151.24 502.471 151.856 489.486 160.197 484.854C166.722 481.393 173.43 478.288 180.291 475.552C180.291 475.552 176.891 486.985 172.246 491.925C167.601 496.866 162.981 502.742 158.694 504.245C157.411 504.683 156.03 504.749 154.711 504.435C153.392 504.121 152.189 503.44 151.24 502.471Z" fill="#5DE091" stroke="#263238" stroke-miterlimit="10"/>
<path d="M139.216 480.837C136.47 474.372 132.094 468.731 126.514 464.464C117.25 457.355 111.989 457.072 111.989 457.072C111.989 457.072 114.157 470.045 121.574 476.538C128.99 483.03 139.216 480.837 139.216 480.837Z" fill="#5DE091" stroke="#263238" stroke-miterlimit="10"/>
<path d="M146.608 542.018V466.62" stroke="#263238" stroke-miterlimit="10"/>
<path d="M146.916 524.721L130.839 510.196" stroke="#263238" stroke-miterlimit="10"/>
<path d="M147.224 507.104L164.521 491.346" stroke="#263238" stroke-miterlimit="10"/>
<path d="M146.608 486.702L126.514 472.189" stroke="#263238" stroke-miterlimit="10"/>
<path d="M147.224 472.805L157.413 462.912" stroke="#263238" stroke-miterlimit="10"/>
<path d="M120.169 549.139C120.169 549.139 142.136 538.778 146.707 538.47C151.277 538.162 173.552 549.472 173.552 549.472L120.169 549.139Z" fill="#263238" stroke="#263238" stroke-miterlimit="10"/>
<path d="M555.201 549.41H54.0109" stroke="#263238" stroke-miterlimit="10"/>
<path d="M213.518 90.0592C213.518 90.0592 199.584 73.7106 185.724 73.7106C171.864 73.7106 166.924 81.8787 162.02 84.3304C157.117 86.7821 145.672 80.2525 136.678 79.4024C127.685 78.5523 121.968 89.2584 118.691 90.8477C115.414 92.437 108.071 87.5829 99.8906 90.8477C91.7101 94.1125 91.7224 98.2397 88.4453 98.2397C85.1682 98.2397 77.8255 94.1618 72.0967 94.1618C66.3679 94.1618 57.3866 102.33 57.3866 102.33H251.932C251.932 102.33 247.854 94.1618 236.409 91.7101C224.963 89.2584 224.963 94.1494 213.518 90.0592Z" stroke="#263238" stroke-miterlimit="10"/>
<path d="M546.207 207.764C546.207 207.764 537.472 197.49 528.737 197.49C520.003 197.49 516.922 202.627 513.842 204.167C510.762 205.707 503.568 201.604 497.913 201.087C492.258 200.57 488.66 207.247 486.603 208.282C484.546 209.317 479.926 206.224 474.788 208.282C469.651 210.339 469.651 212.902 467.593 212.902C465.536 212.902 460.916 210.339 457.318 210.339C453.721 210.339 448.078 215.477 448.078 215.477H570.416C569.358 213.734 567.941 212.236 566.258 211.085C564.575 209.933 562.666 209.154 560.658 208.799C553.402 207.259 553.402 210.339 546.207 207.764Z" stroke="#263238" stroke-miterlimit="10"/>
<path d="M168.784 210.573C168.784 210.573 163.228 204.044 157.696 204.044C152.164 204.044 150.181 207.309 148.222 208.294C146.263 209.28 141.692 206.656 138.107 206.335C134.522 206.015 132.231 210.253 130.925 210.906C129.619 211.559 126.674 209.6 123.409 210.906C120.145 212.212 120.145 213.838 118.839 213.838C117.533 213.838 114.601 212.212 112.309 212.212C110.018 212.212 106.432 215.477 106.432 215.477H184.135C183.467 214.373 182.573 213.423 181.511 212.69C180.449 211.958 179.244 211.459 177.975 211.226C173.318 210.253 173.318 212.212 168.784 210.573Z" stroke="#263238" stroke-miterlimit="10"/>
<path d="M473.458 140.768C495.136 140.768 512.709 123.195 512.709 101.517C512.709 79.8388 495.136 62.2653 473.458 62.2653C451.78 62.2653 434.206 79.8388 434.206 101.517C434.206 123.195 451.78 140.768 473.458 140.768Z" stroke="#263238" stroke-miterlimit="10"/>
<path d="M473.458 154.641V173.441" stroke="#263238" stroke-miterlimit="10"/>
<path d="M473.458 28.7549V47.5552" stroke="#263238" stroke-miterlimit="10"/>
<path d="M527 101.098H545.801" stroke="#263238" stroke-miterlimit="10"/>
<path d="M401.115 101.098H419.915" stroke="#263238" stroke-miterlimit="10"/>
<path d="M511.317 63.2386L524.61 49.933" stroke="#263238" stroke-miterlimit="10"/>
<path d="M422.305 152.251L435.598 138.957" stroke="#263238" stroke-miterlimit="10"/>
<path d="M435.598 63.2386L422.305 49.933" stroke="#263238" stroke-miterlimit="10"/>
<path d="M524.61 152.251L511.317 138.957" stroke="#263238" stroke-miterlimit="10"/>
<path d="M389.386 257.488C389.386 257.488 394.437 253.275 394.856 241.065C395.275 228.856 382.647 220.442 382.647 220.442C382.647 220.442 384.335 212.027 383.066 205.3C381.797 198.574 368.368 193.042 368.368 193.042C369.062 188.262 368.773 183.391 367.518 178.726C365.411 172 355.74 169.893 355.74 169.893C336.262 142.789 313.68 149.959 309.651 151.536C305.622 149.959 283.04 142.776 263.562 169.893C263.562 169.893 253.878 172 251.772 178.726C250.525 183.392 250.24 188.263 250.934 193.042C250.934 193.042 237.468 198.512 236.15 205.251C234.832 211.99 236.569 220.392 236.569 220.392C236.569 220.392 223.953 228.819 224.372 241.016C224.791 253.213 229.867 257.488 229.867 257.488C229.867 257.488 222.29 262.12 222.29 268.009C222.29 273.898 229.448 283.163 235.756 284.838C241.718 286.428 302.789 285.023 309.676 284.838C316.501 284.999 377.583 286.403 383.534 284.838C389.854 283.163 397.012 273.898 397.012 268.009C397.012 262.12 389.386 257.488 389.386 257.488Z" fill="#263238" stroke="#263238" stroke-miterlimit="10"/>
<path d="M282.128 247.632C282.128 247.632 241.644 269.254 235.152 277.607C228.659 285.96 249.369 375.563 249.936 378.951C250.502 382.339 251.796 392.86 291.343 395.952C330.89 399.045 350.06 390.704 352.845 387.612C354.498 385.765 356.25 384.009 358.093 382.351C358.093 382.351 389.608 284.703 385.591 277.631C381.575 270.56 354.693 254.445 346.352 250.429C338.011 246.412 334.303 246.104 334.303 246.104L282.128 247.632Z" fill="#5DE091"/>
<path opacity="0.3" d="M282.128 247.632C282.128 247.632 241.644 269.254 235.152 277.607C228.659 285.96 249.369 375.563 249.936 378.951C250.502 382.339 251.796 392.86 291.343 395.952C330.89 399.045 350.06 390.704 352.845 387.612C354.498 385.765 356.25 384.009 358.093 382.351C358.093 382.351 389.608 284.703 385.591 277.631C381.575 270.56 354.693 254.445 346.352 250.429C338.011 246.412 334.303 246.104 334.303 246.104L282.128 247.632Z" fill="white"/>
<path opacity="0.15" d="M380.405 303.072V301.052H382.006L382.832 297.676H380.368V286.896H385.086C385.308 285.664 385.48 284.543 385.604 283.52H380.368V276.128H384.433C379.924 270.769 366.877 262.207 356.775 256.256V257.932H349.383V255.911H356.208C354.04 254.679 352.019 253.447 350.258 252.548H349.383V252.067C348.151 251.439 347.153 250.897 346.315 250.49L346.007 250.355V252.56H335.227V246.4C334.587 246.277 334.266 246.24 334.266 246.24L331.802 246.314V252.56H329.782V246.314L311.585 246.856V252.56H304.193V247.065L300.83 247.164V252.56H290.037V247.484L286.674 247.583V252.511H284.654V247.583L282.128 247.632C282.128 247.632 275.167 251.328 266.556 256.256V257.808H263.87C252.227 264.584 238.675 273.036 235.152 277.52C231.986 281.586 235.3 305.043 239.599 328.377V321.121H241.62V328.513H239.624L240.252 331.876H241.62V338.997C243.64 349.321 245.685 359.005 247.25 366.249H255.776V373.641H248.864C249.172 375.021 249.418 376.105 249.603 377.017H255.763V387.218C258.421 388.917 261.297 390.247 264.313 391.172H266.543V391.85C274.671 393.99 282.991 395.319 291.38 395.817C313.556 397.542 329.24 395.694 339.305 393.193H335.301V391.172H345.983C348.342 390.415 350.561 389.275 352.549 387.797H349.457V377.017H356.849V383.386L358.081 382.216C358.081 382.216 367.21 353.941 375.021 326.702V321.072H376.61C378.409 314.702 380.084 308.505 381.538 302.875L380.405 303.072ZM241.558 303.072H239.538V301.052H241.558V303.072ZM241.558 297.676H239.538V286.896H241.558V297.676ZM241.558 283.52H239.538V276.128H241.558V283.52ZM255.714 348.225H244.934V346.192H255.714V348.225ZM255.714 342.841H244.934V332.024H255.714V342.841ZM255.714 328.685H244.934V321.293H255.714V328.685ZM255.714 303.072H244.934V301.052H255.714V303.072ZM255.714 297.676H244.934V286.896H255.714V297.676ZM255.714 283.52H244.934V276.128H255.714V283.52ZM266.494 387.994H259.102V377.214H266.494V387.994ZM266.494 373.838H259.102V366.446H266.494V373.838ZM266.494 348.225H259.102V346.192H266.494V348.225ZM266.494 342.841H259.102V332.024H266.494V342.841ZM266.494 328.685H259.102V321.293H266.494V328.685ZM266.494 303.072H259.102V301.052H266.494V303.072ZM266.494 297.676H259.102V286.896H266.494V297.676ZM266.494 283.52H259.102V276.128H266.494V283.52ZM286.723 393.39H284.703V391.369H286.723V393.39ZM286.723 387.994H284.703V377.214H286.723V387.994ZM286.723 373.838H284.703V366.446H286.723V373.838ZM286.723 348.225H284.703V346.192H286.723V348.225ZM286.723 342.841H284.703V332.024H286.723V342.841ZM286.723 328.685H284.703V321.293H286.723V328.685ZM286.723 303.072H284.703V301.052H286.723V303.072ZM286.723 297.676H284.703V286.896H286.723V297.676ZM286.723 283.52H284.703V276.128H286.723V283.52ZM286.723 257.907H284.703V255.886H286.723V257.907ZM300.879 393.427H290.087V391.406H300.879V393.427ZM300.879 388.031H290.087V377.251H300.879V388.031ZM300.879 373.875H290.087V366.483H300.879V373.875ZM300.879 348.262H290.087V346.192H300.879V348.262ZM300.879 342.878H290.087V332.024H300.879V342.878ZM300.879 328.722H290.087V321.33H300.879V328.722ZM300.879 303.109H290.087V301.088H300.879V303.109ZM300.879 297.713H290.087V286.933H300.879V297.713ZM300.879 283.557H290.087V276.165H300.879V283.557ZM300.879 257.944H290.087V255.923H300.879V257.944ZM311.659 393.464H304.267V391.443H311.659V393.464ZM311.659 388.068H304.267V377.288H311.659V388.068ZM311.659 373.912H304.267V366.52H311.659V373.912ZM311.659 348.299H304.267V346.192H311.659V348.299ZM311.659 342.915H304.267V332.024H311.659V342.915ZM311.659 328.759H304.267V321.367H311.659V328.759ZM311.696 303.072H304.304V301.052H311.696V303.072ZM311.696 297.676H304.304V286.896H311.696V297.676ZM311.696 283.52H304.304V276.128H311.696V283.52ZM311.696 257.907H304.304V255.886H311.696V257.907ZM331.913 393.427H329.893V391.406H331.913V393.427ZM331.913 388.031H329.893V377.251H331.913V388.031ZM331.913 373.875H329.893V366.483H331.913V373.875ZM331.913 348.262H329.893V346.192H331.913V348.262ZM331.913 342.878H329.893V332.024H331.913V342.878ZM331.913 328.722H329.893V321.33H331.913V328.722ZM331.913 303.109H329.893V301.088H331.913V303.109ZM331.913 297.713H329.893V286.933H331.913V297.713ZM331.913 283.557H329.893V276.165H331.913V283.557ZM331.913 257.944H329.893V255.923H331.913V257.944ZM346.069 388.031H335.289V377.251H346.069V388.031ZM346.069 373.875H335.289V366.483H346.069V373.875ZM346.069 348.262H335.289V346.192H346.069V348.262ZM346.069 342.878H335.289V332.024H346.069V342.878ZM346.069 328.722H335.289V321.33H346.069V328.722ZM346.069 303.109H335.289V301.088H346.069V303.109ZM346.069 297.713H335.289V286.933H346.069V297.713ZM346.069 283.557H335.289V276.165H346.069V283.557ZM346.069 257.944H335.289V255.923H346.069V257.944ZM356.849 373.875H349.457V366.483H356.849V373.875ZM356.849 348.262H349.457V346.192H356.849V348.262ZM356.849 342.878H349.457V332.024H356.849V342.878ZM356.849 328.722H349.457V321.33H356.849V328.722ZM356.849 303.109H349.457V301.088H356.849V303.109ZM356.849 297.713H349.457V286.933H356.849V297.713ZM356.849 283.557H349.457V276.165H356.849V283.557ZM376.992 303.072H375.021V301.052H376.992V303.072ZM376.992 297.676H375.021V286.896H376.992V297.676ZM376.992 283.52H375.021V276.128H376.992V283.52Z" fill="black"/>
<path d="M282.128 247.632C282.128 247.632 241.644 269.254 235.152 277.607C228.659 285.96 249.369 375.563 249.936 378.951C250.502 382.339 251.796 392.86 291.343 395.952C330.89 399.045 350.06 390.704 352.845 387.612C354.498 385.765 356.25 384.009 358.093 382.351C358.093 382.351 389.608 284.703 385.591 277.631C381.575 270.56 354.693 254.445 346.352 250.429C338.011 246.412 334.303 246.104 334.303 246.104L282.128 247.632Z" stroke="#263238" stroke-miterlimit="10"/>
<path d="M232.749 487.244C232.749 487.244 225.9 487.983 222.265 491.088C218.631 494.192 215.982 505.058 215.982 505.058L201.629 536.524C199.042 542.228 200.594 547.402 202.147 547.92C203.699 548.437 210.955 548.437 210.955 548.437H237.985C238.762 546.919 239.009 545.184 238.688 543.509C237.751 540.257 234.832 536.672 236.335 533.973C238.922 529.317 249.11 512.635 244.959 500.204C240.807 487.773 232.749 487.244 232.749 487.244Z" fill="#263238" stroke="#263238" stroke-miterlimit="10"/>
<path d="M378.286 487.244C378.286 487.244 385.135 487.983 388.758 491.088C392.38 494.192 395.053 505.12 395.053 505.12C395.053 505.12 406.806 530.893 409.394 536.585C411.981 542.277 410.441 547.464 408.876 547.981C407.312 548.499 400.08 548.499 400.08 548.499H373.05C372.273 546.98 372.026 545.246 372.347 543.571C373.284 540.318 376.191 536.733 374.7 534.035C372.101 529.378 361.925 512.697 366.076 500.266C370.228 487.835 378.286 487.244 378.286 487.244Z" fill="#263238" stroke="#263238" stroke-miterlimit="10"/>
<path d="M243.936 549.398H368.602C369.612 547.476 382.795 526.791 383.608 501.917C384.045 483.895 382.642 465.876 379.419 448.14L229.842 461.803C229.842 461.803 226.442 480.036 228.918 505.071C231.259 528.824 240.56 546.355 243.936 549.398Z" fill="#A1A1A1" stroke="#263238" stroke-miterlimit="10"/>
<path d="M260.124 259.718L271.865 378.064L252.153 371.263C252.153 371.263 233.612 437.089 230.211 459.031C226.811 480.973 233.907 506.919 244.121 521.444C254.334 535.969 285.528 546.478 306.534 545.246C327.539 544.014 346.709 538.138 358.142 522.38C369.575 506.623 378.852 484.681 379.776 452.846C380.7 421.011 362.775 373.74 362.775 373.74L341.831 378.372L365.165 261.406L357.773 256.478L349.863 308.554C349.863 308.554 338.43 311.955 311.548 311.955C284.666 311.955 271.681 304.563 271.681 304.563L266.753 256.355L260.124 259.718Z" fill="white" stroke="#263238" stroke-miterlimit="10"/>
<path d="M265.348 389.94C265.348 389.94 287.61 400.301 303.676 403.418" stroke="#263238" stroke-miterlimit="10"/>
<path d="M346.66 400.819C329.848 410.417 309.937 413.023 291.22 408.075" stroke="#263238" stroke-miterlimit="10"/>
<path d="M307.815 403.418C312.409 403.917 317.052 403.199 321.281 401.336" stroke="#263238" stroke-miterlimit="10"/>
<path d="M303.072 482.205C303.072 482.205 301.532 473.864 295.976 468.295C290.419 462.727 283.656 462.135 278.666 460.571C275.106 459.255 271.779 457.379 268.81 455.015C268.81 455.015 274.687 468.567 278.395 473.236C282.103 477.905 287.019 480.973 290.136 481.589C293.253 482.205 303.072 482.205 303.072 482.205Z" fill="#5DE091" stroke="#263238" stroke-miterlimit="10"/>
<path d="M312.349 431.52C312.349 431.52 312.349 423.796 315.441 420.087C318.534 416.379 334.907 411.131 334.907 411.131C334.907 411.131 330.275 420.716 323.819 425.915C317.363 431.114 312.349 431.52 312.349 431.52Z" fill="#5DE091" stroke="#263238" stroke-miterlimit="10"/>
<path d="M308 438.013C308 438.013 304.304 437.705 303.072 427.812C301.84 417.919 307.717 399.698 307.717 399.698C307.717 399.698 313.877 414.482 312.965 423.796C312.053 433.11 311.117 432.765 308 438.013Z" fill="#5DE091" stroke="#263238" stroke-miterlimit="10"/>
<path d="M312.928 464.587C312.928 464.587 313.544 451.614 321.885 446.982C328.41 443.529 335.118 440.432 341.979 437.705C341.979 437.705 338.578 449.138 333.946 454.078C329.314 459.019 324.669 464.895 320.394 466.398C319.105 466.831 317.721 466.891 316.4 466.57C315.078 466.25 313.875 465.562 312.928 464.587Z" fill="#5DE091" stroke="#263238" stroke-miterlimit="10"/>
<path d="M300.916 442.953C298.188 436.498 293.838 430.858 288.288 426.58C279.011 419.471 273.763 419.188 273.763 419.188C273.763 419.188 275.919 432.173 283.335 438.654C290.752 445.134 300.916 442.953 300.916 442.953Z" fill="#5DE091" stroke="#263238" stroke-miterlimit="10"/>
<path d="M308.333 504.147V428.748" stroke="#263238" stroke-miterlimit="10"/>
<path d="M308.641 486.837L292.575 472.312" stroke="#263238" stroke-miterlimit="10"/>
<path d="M308.949 469.22L326.258 453.462" stroke="#263238" stroke-miterlimit="10"/>
<path d="M308.333 448.83L288.251 434.305" stroke="#263238" stroke-miterlimit="10"/>
<path d="M308.949 434.921L319.15 425.04" stroke="#263238" stroke-miterlimit="10"/>
<path d="M380.343 551.098C380.343 551.098 342.595 525.596 338.369 520.52C334.143 515.444 327.034 509.641 320.69 507.103C314.345 504.566 309.688 501.178 297.417 507.103C285.146 513.029 284.099 521.111 281.401 522.996L240.721 551.936L228.401 556.593C228.401 556.593 247.016 555.743 251.673 554.893C256.33 554.043 267.319 554.055 267.319 554.055C267.319 554.055 255.899 559.131 262.244 559.55C268.588 559.969 280.44 555.324 283.397 554.893C286.354 554.462 288.473 554.474 298.637 557.431C308.801 560.387 310.476 561.669 311.745 560.819C313.295 559.397 314.713 557.838 315.983 556.162C315.983 556.162 308.789 557.394 330.361 559.969C351.933 562.543 351.12 556.174 351.12 556.174C351.12 556.174 358.734 556.174 365.904 555.755C373.074 555.336 376.487 557.874 383.682 557.874C390.877 557.874 380.343 551.098 380.343 551.098Z" fill="#263238" stroke="#263238" stroke-miterlimit="10"/>
<path d="M320.69 287.216L316.365 376.524L337.063 374.356L340.759 267.443C340.759 267.443 333.354 285.368 320.69 287.216Z" fill="#A1A1A1" stroke="#263238" stroke-miterlimit="10"/>
<path d="M282.682 241.472C282.682 241.472 278.358 245.488 278.666 247.632C278.974 249.776 276.202 251.032 277.742 256.589C279.282 262.145 294.115 293.98 298.132 296.764C302.148 299.548 313.273 302.924 318.842 298.92C324.41 294.916 340.155 274.514 342.016 264.005C343.876 253.496 344.8 247.632 339.231 240.831L333.675 234.08C333.675 234.08 331.815 244.589 316.057 249.837C300.3 255.086 282.682 241.472 282.682 241.472Z" fill="#A1A1A1" stroke="#263238" stroke-miterlimit="10"/>
<path d="M290.752 251.328C290.752 251.328 308.062 282.535 312.694 280.058C317.326 277.582 325.987 248.544 325.987 248.544L290.752 251.328Z" fill="white" stroke="#263238" stroke-miterlimit="10"/>
<path d="M312.657 280.108C312.657 280.108 304.316 284.124 299.992 284.124C295.668 284.124 287.672 271.804 283.914 265.582" stroke="#263238" stroke-miterlimit="10"/>
<path d="M336.447 237.776C336.447 237.776 339.539 248.864 337.063 259.718C334.587 270.572 330.583 281.66 322.279 284.74" stroke="#263238" stroke-miterlimit="10"/>
<path d="M345.983 203.477C345.983 203.477 346.389 194.853 351.502 197.872C356.615 200.89 350.726 214.54 348.102 217.584C346.343 219.581 344.261 221.268 341.942 222.573L344.578 205.892L345.983 203.477Z" fill="white" stroke="#263238" stroke-miterlimit="10"/>
<path d="M268.81 200.04C268.81 200.04 272.789 227.92 275.574 234.376C278.358 240.831 290.358 256.034 299.388 260.248C302.485 261.813 305.956 262.483 309.412 262.183C312.869 261.883 316.173 260.624 318.953 258.548C322.476 256.084 332.283 244.872 337.667 235.571C343.05 226.269 345.059 197.564 345.059 197.564L342.915 177.223C342.915 177.223 299.585 151.351 290.555 152.583C281.524 153.815 264.794 187.338 265.841 191.342C266.65 194.3 267.642 197.205 268.81 200.04Z" fill="white" stroke="#263238" stroke-miterlimit="10"/>
<path d="M302.801 233.735C302.801 233.735 306.94 237.714 314.234 233.957" stroke="#263238" stroke-miterlimit="10"/>
<path d="M299.277 242.704C299.277 242.704 307.335 249.123 317.893 241.632" stroke="#263238" stroke-miterlimit="10"/>
<path d="M281.241 205.202C281.241 205.202 288.633 200.2 296.197 202.923" stroke="#263238" stroke-miterlimit="10"/>
<path d="M317.215 203.379C317.215 203.379 326.973 199.917 332.233 206.348" stroke="#263238" stroke-miterlimit="10"/>
<path d="M292.243 214.836C292.144 216.795 291.109 218.384 289.902 218.397C288.695 218.409 287.82 216.82 287.906 214.861C287.992 212.902 289.04 211.313 290.247 211.3C291.454 211.288 292.329 212.877 292.243 214.836Z" fill="#263238"/>
<path d="M325.039 214.59C324.952 216.549 323.905 218.138 322.71 218.15C321.515 218.163 320.616 216.573 320.714 214.614C320.813 212.656 321.848 211.066 323.043 211.054C324.238 211.042 325.137 212.619 325.039 214.59Z" fill="#263238"/>
<path d="M295.791 165.593C295.791 165.593 293.733 169.93 290.863 177.038C287.992 184.147 280.908 191.317 276.818 192.882C274.173 193.873 271.443 194.619 268.662 195.112C268.662 195.112 271.225 200.04 268.748 200.04C266.272 200.04 264.091 193.596 264.091 193.596C264.091 193.596 255.825 172.061 260.975 154.739C262.447 149.721 265.068 145.115 268.631 141.287C272.194 137.459 276.6 134.514 281.5 132.686C281.5 132.686 289.483 120.896 311.942 123.508C334.402 126.12 345.724 135.286 353.584 158.977C361.444 182.669 349.691 195.728 348.065 197.28C346.438 198.832 347.51 202.541 345.921 203.44C344.332 204.34 342.397 199.448 342.397 199.448C335.225 197.21 328.418 193.935 322.193 189.728C313.211 183.322 302.739 169.203 300.399 166.135C298.058 163.068 295.791 165.593 295.791 165.593Z" fill="#263238" stroke="#263238" stroke-miterlimit="10"/>
<path d="M268.81 200.04C268.81 200.04 265.324 195.112 262.65 199.473C259.977 203.834 261.184 210.906 263.759 215.206C266.334 219.505 272.481 222.327 272.481 222.327L268.81 200.04Z" fill="white" stroke="#263238" stroke-miterlimit="10"/>
<path d="M257.648 262.81C257.648 262.81 218.409 285.06 216.241 295.249C214.072 305.437 224.286 366.939 224.286 366.939L223.965 414.531C223.965 414.531 235.053 408.654 244.367 408.654C253.681 408.654 260.124 408.962 260.124 408.962C260.124 408.962 254.248 369.415 254.248 368.183C254.248 366.951 254.568 301.125 254.568 301.125" fill="#5DE091"/>
<path opacity="0.3" d="M257.648 262.81C257.648 262.81 218.409 285.06 216.241 295.249C214.072 305.437 224.286 366.939 224.286 366.939L223.965 414.531C223.965 414.531 235.053 408.654 244.367 408.654C253.681 408.654 260.124 408.962 260.124 408.962C260.124 408.962 254.248 369.415 254.248 368.183C254.248 366.951 254.568 301.125 254.568 301.125" fill="white"/>
<path opacity="0.15" d="M255.714 378.865V387.969H244.934V377.189H255.468C255.295 375.957 255.135 374.836 254.999 373.813H244.934V366.421H254.26C254.26 363.305 254.26 356.418 254.346 348.225H244.934V346.192H254.359C254.359 345.083 254.359 343.962 254.359 342.829H244.922V332.024H254.408C254.408 330.903 254.408 329.769 254.408 328.661H244.909V321.269H254.445C254.445 313.125 254.519 306.263 254.531 303.072H244.909V301.052H254.544L254.815 297.676H244.959V286.896H255.739L257.673 262.835C257.673 262.835 232.491 277.114 221.366 288.042V297.676H216.007C216.007 298.649 216.007 299.783 216.007 301.052H221.378V303.072H216.068C216.302 308 216.918 314.382 217.731 321.269H221.427V328.661H218.705L219.148 332.024H221.427V342.816H220.528C220.688 343.95 220.861 345.083 221.021 346.18H221.304V348.102C222.906 358.869 224.249 366.939 224.249 366.939L223.928 414.531C223.928 414.531 235.016 408.654 244.33 408.654C253.644 408.654 260.088 408.962 260.088 408.962C260.088 408.962 257.488 390.963 255.714 378.865ZM244.934 276.079H255.714V283.471H244.934V276.079ZM241.558 393.365H239.538V391.345H241.558V393.365ZM241.558 387.969H239.538V377.189H241.558V387.969ZM241.558 373.813H239.538V366.421H241.558V373.813ZM241.558 348.2H239.538V346.192H241.558V348.2ZM241.558 342.816H239.538V332.024H241.558V342.816ZM241.558 328.661H239.538V321.269H241.558V328.661ZM241.558 303.047H239.538V301.027H241.558V303.047ZM241.558 297.651H239.538V286.871H241.558V297.651ZM241.558 283.496H239.538V276.104H241.558V283.496ZM255.714 393.365H244.934V391.345H255.714V393.365Z" fill="black"/>
<path d="M257.648 262.81C257.648 262.81 218.409 285.06 216.241 295.249C214.072 305.437 224.286 366.939 224.286 366.939L223.965 414.531C223.965 414.531 235.053 408.654 244.367 408.654C253.681 408.654 260.124 408.962 260.124 408.962C260.124 408.962 254.248 369.415 254.248 368.183C254.248 366.951 254.568 301.125 254.568 301.125" stroke="#263238" stroke-miterlimit="10"/>
<path d="M238.49 399.082C238.49 399.082 226.17 405.242 222.733 408.654C219.296 412.067 218.409 413.299 219.333 414.531C220.257 415.763 222.117 435.475 224.594 437.705C227.07 439.935 235.09 443.582 248.383 439.245C261.677 434.908 265.065 430.288 265.631 427.196C266.198 424.104 264.695 421.64 263.167 412.412C261.64 403.184 257.648 395.373 238.49 399.082Z" fill="#A1A1A1" stroke="#263238" stroke-miterlimit="10"/>
<path d="M259.508 426.58C259.508 426.58 253.94 424.732 243.135 425.964C232.331 427.196 230.458 433.073 230.458 433.073C230.458 433.073 248.383 481.897 252.4 490.853C256.416 499.81 251.168 512.179 250.552 515.58C249.936 518.98 249.923 530.721 249.923 530.721C249.923 530.721 254.568 542.154 254.248 545.862C253.927 549.571 257.944 548.955 258.276 546.17C258.609 543.386 255.812 533.85 255.812 533.85C255.812 533.85 268.132 543.706 269.093 544.655C270.054 545.604 273.738 544.655 271.878 541.883C270.069 539.397 268.11 537.023 266.013 534.774C266.013 534.774 273.738 540.331 275.869 539.702C276.143 539.661 276.404 539.562 276.636 539.41C276.867 539.259 277.063 539.06 277.21 538.826C277.358 538.592 277.453 538.329 277.489 538.055C277.526 537.781 277.503 537.503 277.422 537.238C277.422 537.238 280.502 537.238 280.822 534.774C281.142 532.31 276.485 522.725 276.177 520.557C275.869 518.389 279.873 510.048 279.873 510.048C279.873 510.048 287.906 515.925 290.382 516.208C292.859 516.491 299.659 514.348 298.107 511.28C296.555 508.212 293.783 509.112 288.842 505.12C284.744 502.02 279.983 499.911 274.933 498.96C272.765 498.652 270.005 495.264 270.005 495.264L259.508 426.58Z" fill="white" stroke="#263238" stroke-miterlimit="10"/>
<path d="M269.709 510.627L266.001 518.98L277.434 537.201" stroke="#263238" stroke-miterlimit="10"/>
<path d="M261.985 517.736C261.985 517.736 256.724 528.245 259.2 528.824C261.677 529.403 266.001 534.7 266.001 534.7" stroke="#263238" stroke-miterlimit="10"/>
<path d="M256.108 520.828C256.108 520.828 251.18 526.397 252.412 528.553C253.644 530.709 255.813 533.813 255.813 533.813" stroke="#263238" stroke-miterlimit="10"/>
<path d="M254.248 368.183L241.583 333.564" stroke="#263238" stroke-miterlimit="10"/>
<path d="M367.998 263.574C367.998 263.574 399.944 279.492 402.112 289.692C404.281 299.893 390.285 366.939 390.285 366.939L390.593 414.531C390.593 414.531 379.505 408.654 370.191 408.654C360.877 408.654 354.434 408.962 354.434 408.962C354.434 408.962 360.311 369.415 360.311 368.183C360.311 366.951 360.003 301.125 360.003 301.125" fill="#5DE091"/>
<path opacity="0.3" d="M367.998 263.574C367.998 263.574 399.944 279.492 402.112 289.692C404.281 299.893 390.285 366.939 390.285 366.939L390.593 414.531C390.593 414.531 379.505 408.654 370.191 408.654C360.877 408.654 354.434 408.962 354.434 408.962C354.434 408.962 360.311 369.415 360.311 368.183C360.311 366.951 360.003 301.125 360.003 301.125" fill="white"/>
<path opacity="0.15" d="M401.977 289.249V297.651H394.585V286.871H400.893C400.107 285.656 399.199 284.525 398.182 283.496H394.585V280.194C393.525 279.307 392.392 278.42 391.222 277.557V283.496H380.429V276.104H389.177C382.399 271.489 375.333 267.312 368.023 263.599L360.027 301.15C360.027 301.15 360.335 366.964 360.335 368.208C360.335 368.898 358.475 381.76 356.837 392.848V393.39H356.763C355.531 401.755 354.459 408.987 354.459 408.987C354.459 408.987 360.951 408.679 370.216 408.679C374.865 408.881 379.446 409.864 383.768 411.587H390.544L390.433 393.39H380.38V391.369H390.421V387.994H380.405V377.214H390.347V373.838H380.429V366.446H390.421C390.901 364.142 392.885 354.57 395.065 342.866H394.585V332.024H397.049C397.246 330.903 397.456 329.782 397.653 328.661H394.585V321.269H398.909C399.993 314.702 400.942 308.382 401.57 303.072H394.585V301.052H401.805C402.359 295.754 402.544 291.676 402.137 289.717C402.076 289.52 402.014 289.397 401.977 289.249ZM376.992 393.365H375.021V391.345H376.992V393.365ZM376.992 387.969H375.021V377.189H376.992V387.969ZM376.992 373.813H375.021V366.421H376.992V373.813ZM376.992 348.2H375.021V346.192H376.992V348.2ZM376.992 342.816H375.021V332.024H376.992V342.816ZM376.992 328.661H375.021V321.269H376.992V328.661ZM376.992 303.072H375.021V301.052H376.992V303.072ZM376.992 297.676H375.021V286.896H376.992V297.676ZM376.992 283.52H375.021V276.128H376.992V283.52ZM391.148 348.225H380.355V346.192H391.148V348.225ZM391.148 342.841H380.355V332.024H391.148V342.841ZM391.148 328.685H380.355V321.293H391.148V328.685ZM391.148 303.072H380.355V301.052H391.148V303.072ZM391.148 297.676H380.355V286.896H391.148V297.676Z" fill="black"/>
<path d="M367.998 263.574C367.998 263.574 399.944 279.492 402.112 289.692C404.281 299.893 390.285 366.939 390.285 366.939L390.593 414.531C390.593 414.531 379.505 408.654 370.191 408.654C360.877 408.654 354.434 408.962 354.434 408.962C354.434 408.962 360.311 369.415 360.311 368.183C360.311 366.951 360.003 301.125 360.003 301.125" stroke="#263238" stroke-miterlimit="10"/>
<path d="M376.068 399.082C376.068 399.082 383.608 399.944 391.825 408.654C395.127 412.153 396.15 413.299 395.226 414.531C394.302 415.763 392.441 435.475 389.977 437.705C387.513 439.935 379.468 443.582 366.175 439.245C352.882 434.908 349.494 430.288 348.927 427.196C348.36 424.104 349.851 421.64 351.391 412.412C352.931 403.184 356.91 395.373 376.068 399.082Z" fill="#A1A1A1" stroke="#263238" stroke-miterlimit="10"/>
<path d="M355.05 426.58C355.05 426.58 360.619 424.732 371.436 425.964C382.253 427.196 384.101 433.073 384.101 433.073C384.101 433.073 366.175 481.897 362.159 490.853C358.142 499.81 363.391 512.179 364.019 515.58C364.647 518.98 364.635 530.721 364.635 530.721C364.635 530.721 360.003 542.154 360.311 545.862C360.619 549.571 356.615 548.955 356.294 546.17C355.974 543.386 358.758 533.85 358.758 533.85C358.758 533.85 346.438 543.706 345.477 544.655C344.516 545.604 340.845 544.655 342.693 541.883C344.509 539.398 346.471 537.025 348.57 534.774C348.57 534.774 340.845 540.331 338.714 539.702C338.44 539.662 338.179 539.562 337.948 539.411C337.717 539.259 337.522 539.06 337.375 538.826C337.229 538.591 337.135 538.328 337.1 538.054C337.065 537.78 337.091 537.502 337.174 537.238C337.174 537.238 334.081 537.238 333.773 534.774C333.465 532.31 338.098 522.725 338.406 520.557C338.714 518.389 334.71 510.048 334.71 510.048C334.71 510.048 326.677 515.925 324.201 516.208C321.724 516.491 314.936 514.348 316.476 511.28C318.016 508.212 320.8 509.112 325.753 505.12C329.848 502.022 334.604 499.913 339.65 498.96C341.818 498.652 344.578 495.264 344.578 495.264L355.05 426.58Z" fill="white" stroke="#263238" stroke-miterlimit="10"/>
<path d="M344.862 510.627L348.57 518.98L337.137 537.201" stroke="#263238" stroke-miterlimit="10"/>
<path d="M352.586 517.736C352.586 517.736 357.834 528.245 355.358 528.824C352.882 529.403 348.57 534.7 348.57 534.7" stroke="#263238" stroke-miterlimit="10"/>
<path d="M358.512 520.828C358.512 520.828 363.44 526.397 362.208 528.553C360.976 530.709 358.808 533.813 358.808 533.813" stroke="#263238" stroke-miterlimit="10"/>
<path d="M360.311 368.183L372.976 333.564" stroke="#263238" stroke-miterlimit="10"/>
</svg>
