<svg width="35" height="32" viewBox="0 0 35 32" fill="none" xmlns="http://www.w3.org/2000/svg">
<path d="M0 31.2605V27.7989C0 27.7989 8.65417 24.3372 17.3083 24.3372C25.9625 24.3372 34.6167 27.7989 34.6167 27.7989V31.2605H0ZM16.0968 8.93277C14.0198 2.18252 3.46167 3.74027 3.46167 3.74027C3.46167 3.74027 3.80783 17.2408 13.6736 15.1638C12.9812 10.1444 10.385 8.75969 10.385 8.75969C15.2313 8.75969 15.5775 14.6445 15.5775 14.6445V22.6064H19.0392V15.3369C19.0392 15.3369 19.0392 8.58661 24.2317 6.85577C24.2317 6.85577 20.77 12.0483 20.77 15.5099C32.8858 16.7215 32.8858 0.105522 32.8858 0.105522C32.8858 0.105522 17.4814 -1.62531 16.0968 8.93277Z" fill="#5DE091"/>
</svg>
